<?xml version="1.0" encoding="UTF-8" standalone="no"?>
<!-- Created with Inkscape (http://www.inkscape.org/) -->

<svg
   xmlns:dc="http://purl.org/dc/elements/1.1/"
   xmlns:cc="http://creativecommons.org/ns#"
   xmlns:rdf="http://www.w3.org/1999/02/22-rdf-syntax-ns#"
   xmlns:svg="http://www.w3.org/2000/svg"
   xmlns="http://www.w3.org/2000/svg"
   xmlns:sodipodi="http://sodipodi.sourceforge.net/DTD/sodipodi-0.dtd"
   xmlns:inkscape="http://www.inkscape.org/namespaces/inkscape"
   width="210mm"
   height="297mm"
   id="svg4013"
   version="1.1"
   inkscape:version="0.48.4 r9943 custom"
   sodipodi:docname="trifoot.svg">
  <defs
     id="defs4015" />
  <sodipodi:namedview
     id="base"
     pagecolor="#ffffff"
     bordercolor="#666666"
     borderopacity="1.0"
     inkscape:pageopacity="0.0"
     inkscape:pageshadow="2"
     inkscape:zoom="0.35"
     inkscape:cx="350"
     inkscape:cy="520"
     inkscape:document-units="px"
     inkscape:current-layer="layer1"
     showgrid="false"
     inkscape:window-width="1307"
     inkscape:window-height="1010"
     inkscape:window-x="862"
     inkscape:window-y="352"
     inkscape:window-maximized="0" />
  <metadata
     id="metadata4018">
    <rdf:RDF>
      <cc:Work
         rdf:about="">
        <dc:format>image/svg+xml</dc:format>
        <dc:type
           rdf:resource="http://purl.org/dc/dcmitype/StillImage" />
        <dc:title />
      </cc:Work>
    </rdf:RDF>
  </metadata>
  <g
     inkscape:label="Ebene 1"
     inkscape:groupmode="layer"
     id="layer1">
    <path
       sodipodi:type="arc"
       style="fill:#666666;stroke-width:4;stroke-miterlimit:4;stroke-dasharray:none"
       id="path4021"
       sodipodi:cx="424.28571"
       sodipodi:cy="220.93361"
       sodipodi:rx="20.652086"
       sodipodi:ry="32.108227"
       d="m 444.93779,220.93361 a 20.652086,32.108227 0 1 1 -41.30417,0 20.652086,32.108227 0 1 1 41.30417,0 z"
       transform="matrix(0.97356889,0.22839356,-0.22839356,0.97356889,53.102725,151.79254)" />
    <path
       sodipodi:type="arc"
       style="fill:#666666;stroke-width:4;stroke-miterlimit:4;stroke-dasharray:none"
       id="path4023"
       sodipodi:cx="337.14285"
       sodipodi:cy="208.07646"
       sodipodi:rx="20"
       sodipodi:ry="30"
       d="m 357.14285,208.07646 a 20,30 0 1 1 -40,0 20,30 0 1 1 40,0 z"
       transform="matrix(1.1428571,0,-0.19047619,1,80.041775,40)"
       inkscape:transform-center-x="137.14286" />
    <path
       sodipodi:type="arc"
       style="fill:#666666;stroke-width:4;stroke-miterlimit:4;stroke-dasharray:none"
       id="path4025"
       sodipodi:cx="280"
       sodipodi:cy="236.6479"
       sodipodi:rx="20"
       sodipodi:ry="35.714287"
       d="m 300,236.6479 a 20,35.714287 0 1 1 -40,0 20,35.714287 0 1 1 40,0 z"
       transform="translate(57.142856,-4.2857209e-8)" />
    <path
       sodipodi:type="arc"
       style="fill:#666666;stroke-width:4;stroke-miterlimit:4;stroke-dasharray:none"
       id="path4027"
       sodipodi:cx="237.14285"
       sodipodi:cy="290.93362"
       sodipodi:rx="22.857141"
       sodipodi:ry="32.857143"
       d="m 259.99999,290.93362 a 22.857141,32.857143 0 1 1 -45.71428,0 22.857141,32.857143 0 1 1 45.71428,0 z"
       transform="matrix(1,0,0.17391304,1,-56.311437,-51.428572)" />
    <path
       sodipodi:type="arc"
       style="fill:#666666;stroke-width:4;stroke-miterlimit:4;stroke-dasharray:none"
       id="path4029"
       sodipodi:cx="204.28572"
       sodipodi:cy="356.64789"
       sodipodi:rx="26"
       sodipodi:ry="23.571428"
       d="m 230.28572,356.64789 a 26,23.571428 0 1 1 -52,0 26,23.571428 0 1 1 52,0 z"
       transform="matrix(0.76923077,0,0,1.4545455,77.14286,-89.255536)" />
    <path
       style="fill:#666666;stroke-width:4;stroke-miterlimit:4;stroke-dasharray:none"
       d="m 335.375,289.1875 c -29.26329,6.39607 -67.51536,-13.68613 -88.88624,6.96674 -14.9699,14.46694 -10.99413,41.62797 -7.00425,62.06008 5.05681,25.89582 32.5354,43.68629 37.81563,69.53748 6.61534,32.38767 -6.10221,65.83125 -9.41841,98.72087 -2.71627,26.9396 -4.10861,54.0699 -8.58283,80.77386 -2.5756,15.37222 -16.15359,31.04968 -10.48492,45.56881 10.4814,26.84595 42.69275,45.76034 71.34815,48.83159 22.32968,2.39326 49.86689,-6.76961 62.39917,-25.40517 11.15032,-16.58058 1.74185,-40.03885 -0.006,-59.94338 -2.62802,-29.92789 -1.92205,-61.20108 -15.69882,-88.75142 -6.68856,-16.31446 -14.29149,-37.70926 -1.68159,-53.01768 8.65772,-15.77529 9.45295,-34.88193 18.82466,-50.04002 9.73486,-15.74546 29.31801,-24.24814 37.7602,-40.72286 8.34938,-16.29359 18.37148,-37.13053 10.88078,-53.8363 -11.12901,-24.81994 -44.16665,-34.22689 -70.4753,-41.13624 -8.6381,-2.26859 -17.92659,-0.89447 -26.79019,0.39364 z"
       id="path4033"
       inkscape:connector-curvature="0"
       sodipodi:nodetypes="caaaaaaaaaccaaaacc" />
  </g>
</svg>
