<?xml version="1.0" encoding="UTF-8" standalone="no"?>
<!-- Created with Inkscape (http://www.inkscape.org/) -->

<svg
   xmlns:dc="http://purl.org/dc/elements/1.1/"
   xmlns:cc="http://creativecommons.org/ns#"
   xmlns:rdf="http://www.w3.org/1999/02/22-rdf-syntax-ns#"
   xmlns:svg="http://www.w3.org/2000/svg"
   xmlns="http://www.w3.org/2000/svg"
   xmlns:sodipodi="http://sodipodi.sourceforge.net/DTD/sodipodi-0.dtd"
   xmlns:inkscape="http://www.inkscape.org/namespaces/inkscape"
   width="210mm"
   height="297mm"
   id="svg4013"
   version="1.1"
   inkscape:version="0.48.2 r9819"
   sodipodi:docname="trifoot.svg">
  <defs
     id="defs4015" />
  <sodipodi:namedview
     id="base"
     pagecolor="#ffffff"
     bordercolor="#666666"
     borderopacity="1.0"
     inkscape:pageopacity="0.0"
     inkscape:pageshadow="2"
     inkscape:zoom="0.35"
     inkscape:cx="350"
     inkscape:cy="520"
     inkscape:document-units="px"
     inkscape:current-layer="layer1"
     showgrid="false"
     inkscape:window-width="1307"
     inkscape:window-height="856"
     inkscape:window-x="310"
     inkscape:window-y="0"
     inkscape:window-maximized="0" />
  <metadata
     id="metadata4018">
    <rdf:RDF>
      <cc:Work
         rdf:about="">
        <dc:format>image/svg+xml</dc:format>
        <dc:type
           rdf:resource="http://purl.org/dc/dcmitype/StillImage" />
        <dc:title></dc:title>
      </cc:Work>
    </rdf:RDF>
  </metadata>
  <g
     inkscape:label="Ebene 1"
     inkscape:groupmode="layer"
     id="layer1">
    <g
       id="g3658"
       inkscape:export-filename="/Volumes/ggreif/EuroLLVM-Waymarking/middle.png"
       inkscape:export-xdpi="300"
       inkscape:export-ydpi="300">
      <path
         transform="matrix(0.97356889,0.22839356,-0.22839356,0.97356889,53.102725,151.79254)"
         d="m 444.93779,220.93361 a 20.652086,32.108227 0 1 1 -41.30417,0 20.652086,32.108227 0 1 1 41.30417,0 z"
         sodipodi:ry="32.108227"
         sodipodi:rx="20.652086"
         sodipodi:cy="220.93361"
         sodipodi:cx="424.28571"
         id="path4021"
         style="fill:#666666;stroke-width:4;stroke-miterlimit:4;stroke-dasharray:none"
         sodipodi:type="arc" />
      <path
         inkscape:transform-center-x="137.14286"
         transform="matrix(1.1428571,0,-0.19047619,1,80.041775,40)"
         d="m 357.14285,208.07646 a 20,30 0 1 1 -40,0 20,30 0 1 1 40,0 z"
         sodipodi:ry="30"
         sodipodi:rx="20"
         sodipodi:cy="208.07646"
         sodipodi:cx="337.14285"
         id="path4023"
         style="fill:#666666;stroke-width:4;stroke-miterlimit:4;stroke-dasharray:none"
         sodipodi:type="arc" />
      <path
         transform="translate(57.142856,-4.2857209e-8)"
         d="m 300,236.6479 a 20,35.714287 0 1 1 -40,0 20,35.714287 0 1 1 40,0 z"
         sodipodi:ry="35.714287"
         sodipodi:rx="20"
         sodipodi:cy="236.6479"
         sodipodi:cx="280"
         id="path4025"
         style="fill:#666666;stroke-width:4;stroke-miterlimit:4;stroke-dasharray:none"
         sodipodi:type="arc" />
      <path
         transform="matrix(1,0,0.17391304,1,-56.311437,-51.428572)"
         d="m 259.99999,290.93362 a 22.857141,32.857143 0 1 1 -45.71428,0 22.857141,32.857143 0 1 1 45.71428,0 z"
         sodipodi:ry="32.857143"
         sodipodi:rx="22.857141"
         sodipodi:cy="290.93362"
         sodipodi:cx="237.14285"
         id="path4027"
         style="fill:#666666;stroke-width:4;stroke-miterlimit:4;stroke-dasharray:none"
         sodipodi:type="arc" />
      <path
         transform="matrix(0.76923077,0,0,1.4545455,77.14286,-89.255536)"
         d="m 230.28572,356.64789 a 26,23.571428 0 1 1 -52,0 26,23.571428 0 1 1 52,0 z"
         sodipodi:ry="23.571428"
         sodipodi:rx="26"
         sodipodi:cy="356.64789"
         sodipodi:cx="204.28572"
         id="path4029"
         style="fill:#666666;stroke-width:4;stroke-miterlimit:4;stroke-dasharray:none"
         sodipodi:type="arc" />
      <path
         sodipodi:nodetypes="caaaaaaaaaccaaaacc"
         inkscape:connector-curvature="0"
         id="path4033"
         d="m 335.375,289.1875 c -29.26329,6.39607 -67.51536,-13.68613 -88.88624,6.96674 -14.9699,14.46694 -10.99413,41.62797 -7.00425,62.06008 5.05681,25.89582 32.5354,43.68629 37.81563,69.53748 6.61534,32.38767 -6.10221,65.83125 -9.41841,98.72087 -2.71627,26.9396 -4.10861,54.0699 -8.58283,80.77386 -2.5756,15.37222 -16.15359,31.04968 -10.48492,45.56881 10.4814,26.84595 42.69275,45.76034 71.34815,48.83159 22.32968,2.39326 49.86689,-6.76961 62.39917,-25.40517 11.15032,-16.58058 1.74185,-40.03885 -0.006,-59.94338 -2.62802,-29.92789 -1.92205,-61.20108 -15.69882,-88.75142 -6.68856,-16.31446 -14.29149,-37.70926 -1.68159,-53.01768 8.65772,-15.77529 9.45295,-34.88193 18.82466,-50.04002 9.73486,-15.74546 29.31801,-24.24814 37.7602,-40.72286 8.34938,-16.29359 18.37148,-37.13053 10.88078,-53.8363 -11.12901,-24.81994 -44.16665,-34.22689 -70.4753,-41.13624 -8.6381,-2.26859 -17.92659,-0.89447 -26.79019,0.39364 z"
         style="fill:#666666;stroke-width:4;stroke-miterlimit:4;stroke-dasharray:none" />
    </g>
    <g
       id="g3650"
       transform="matrix(0.76423101,0,0,0.76423101,-24.902602,195.68729)"
       inkscape:export-filename="/Volumes/ggreif/EuroLLVM-Waymarking/left.png"
       inkscape:export-xdpi="300"
       inkscape:export-ydpi="300">
      <path
         inkscape:connector-curvature="0"
         id="path2988"
         d="m -457.14286,298.07647 c 41.98391,-13.79052 69.32538,-57.03946 73.23961,-99.65547 -2.81564,-30.77087 -31.52115,-50.54105 -58.77682,-58.97122 -45.18193,-18.71759 -100.24999,-21.95198 -143.59399,3.14005 -60.85081,46.57711 -52.82341,155.36504 15.5318,191.11069 27.47835,15.65089 59.70245,35.63018 63.36424,70.26675 10.23543,54.94076 -19.66708,106.80749 -18.59278,161.45205 -2.43158,25.31435 -5.4848,57.64904 17.87474,74.53762 26.42189,15.22626 58.79289,5.23977 84.7324,-5.9491 31.89918,-17.40051 47.66408,-60.83648 29.60255,-93.47544 -14.41603,-31.14665 -43.0162,-55.24925 -48.7828,-90.37688 -13.47226,-46.5418 -8.55874,-95.51297 -11.48257,-143.12892 -0.77022,-3.06743 -1.78694,-6.07807 -3.11638,-8.95013 z"
         style="fill:#4d4d4d;stroke:#000000;stroke-width:1px;stroke-linecap:butt;stroke-linejoin:miter;stroke-opacity:1" />
      <path
         inkscape:connector-curvature="0"
         id="path2990"
         d="m -368,274 c -8.23682,2.49365 -14.09117,9.17578 -20.01367,15.02193 -5.42629,2.86434 -8.54444,9.54999 -7.12974,15.53983 0.39754,8.08056 -0.23186,16.16829 0.0496,24.25074 -4.56929,1.49061 -1.95445,9.56621 2.60049,8.27052 16.91824,-2.52913 34.28972,0.32557 51.04773,-3.61209 4.96549,-0.48574 10.83186,0.25613 14.65087,-3.65882 3.98135,-5.27126 0.98079,-12.06761 2.13132,-18.01228 0.67916,-6.14247 -1.12128,-12.82855 -5.92194,-16.96072 -6.22327,-7.2778 -11.69196,-16.07683 -20.89578,-19.89074 C -356.8164,273.0046 -362.52968,274.79494 -368,274 z"
         style="fill:#666666;stroke:#000000;stroke-width:1px;stroke-linecap:butt;stroke-linejoin:miter;stroke-opacity:1" />
      <path
         inkscape:connector-curvature="0"
         id="path2992"
         d="m -365.6875,404.9375 c -6.54623,0.45088 -12.58271,3.24677 -18.875,4.84375 0.14803,14.45812 -0.26449,28.91809 0.0625,43.375 9.34522,13.42369 26.46697,20.40313 42.56804,18.67783 6.92236,0.6066 13.06775,-4.44499 16.03589,-10.35195 5.98606,-6.51093 11.26709,-14.30037 12.29156,-23.29631 1.10296,-5.38599 1.47142,-10.9183 1.13576,-16.40457 -4.26049,-9.0204 -14.28524,-13.73835 -23.81384,-14.67481 -9.69443,-1.71438 -19.56317,-2.46099 -29.40491,-2.16894 z"
         style="fill:#666666;stroke:#000000;stroke-width:1px;stroke-linecap:butt;stroke-linejoin:miter;stroke-opacity:1" />
      <path
         inkscape:connector-curvature="0"
         id="path2994"
         d="m -399.125,41.875 c -6.66223,3.150932 -11.02402,9.765129 -17.96875,12.4375 -6.58401,5.905438 -7.73881,15.400906 -13.54337,21.881192 -2.70099,15.370182 10.18772,31.375068 25.7654,32.072168 11.9172,2.36097 24.55357,3.87626 36.35962,0.13534 5.23731,-2.94386 7.15919,-9.395503 6.98433,-15.070667 1.16632,-6.634467 4.32606,-13.830417 1.00454,-20.34868 -4.32672,-8.042044 -14.81803,-9.055575 -20.07605,-16.185587 C -385.85503,50.918899 -390.60393,43.064179 -399.125,41.875 z"
         style="fill:#666666;stroke:#000000;stroke-width:1px;stroke-linecap:butt;stroke-linejoin:miter;stroke-opacity:1" />
      <path
         inkscape:connector-curvature="0"
         id="path2996"
         d="m -523.25,-6.15625 c -7.02901,-0.420671 -14.6007,0.041757 -20.61461,4.0988675 -3.1845,4.8401508 -3.26665,10.8816973 -3.04703,16.4693555 -3.3458,9.802015 1.57685,19.61969 3.39284,29.176758 0.59452,5.200121 -1.77362,11.090614 1.6678,15.690692 5.08305,4.735741 12.45459,2.12472 18.56576,3.632318 6.28223,1.376796 12.68175,2.782183 19.1466,2.240324 12.29781,1.012082 24.48261,-5.311035 31.65548,-15.183178 6.04044,-7.468249 10.1543,-16.74325 10.48652,-26.425584 -0.97955,-8.229064 -8.48813,-13.9328943 -15.98553,-16.1161825 -8.32794,-3.5235035 -15.28469,-11.2555293 -24.92642,-10.9178267 -6.75412,-0.1365448 -13.33178,-1.9622957 -20.00134,-2.6829925 l -0.22633,0.01161 -0.11374,0.00583 c 0,0 0,4.6e-6 0,4.6e-6 z"
         style="fill:#666666;stroke:#000000;stroke-width:1px;stroke-linecap:butt;stroke-linejoin:miter;stroke-opacity:1" />
      <path
         inkscape:connector-curvature="0"
         id="path2998"
         d="m -631.21875,45.65625 c -12.47614,-1.714849 -23.90048,12.26801 -19.73213,24.151713 5.08581,10.189321 5.81988,22.072423 3.85007,33.156457 0.47308,5.17933 6.26301,9.07144 11.23827,7.56183 16.75784,-1.44429 33.60664,1.00279 50.34872,-0.79454 8.75108,-5.17774 12.48925,-15.127049 17.67913,-23.33523 5.20156,-10.152675 0.22626,-24.0533 -10.20223,-28.648468 -15.97921,-9.458422 -34.94502,-11.728713 -53.18183,-12.091762 z"
         style="fill:#666666;stroke:#000000;stroke-width:1px;stroke-linecap:butt;stroke-linejoin:miter;stroke-opacity:1" />
    </g>
    <g
       inkscape:export-ydpi="300"
       inkscape:export-xdpi="300"
       inkscape:export-filename="/Volumes/ggreif/EuroLLVM-Waymarking/right.png"
       transform="matrix(-0.76423101,0,0,0.76423101,661.10267,198.54443)"
       id="g3666">
      <path
         style="fill:#4d4d4d;stroke:#000000;stroke-width:1px;stroke-linecap:butt;stroke-linejoin:miter;stroke-opacity:1"
         d="m -457.14286,298.07647 c 41.98391,-13.79052 69.32538,-57.03946 73.23961,-99.65547 -2.81564,-30.77087 -31.52115,-50.54105 -58.77682,-58.97122 -45.18193,-18.71759 -100.24999,-21.95198 -143.59399,3.14005 -60.85081,46.57711 -52.82341,155.36504 15.5318,191.11069 27.47835,15.65089 59.70245,35.63018 63.36424,70.26675 10.23543,54.94076 -19.66708,106.80749 -18.59278,161.45205 -2.43158,25.31435 -5.4848,57.64904 17.87474,74.53762 26.42189,15.22626 58.79289,5.23977 84.7324,-5.9491 31.89918,-17.40051 47.66408,-60.83648 29.60255,-93.47544 -14.41603,-31.14665 -43.0162,-55.24925 -48.7828,-90.37688 -13.47226,-46.5418 -8.55874,-95.51297 -11.48257,-143.12892 -0.77022,-3.06743 -1.78694,-6.07807 -3.11638,-8.95013 z"
         id="path3668"
         inkscape:connector-curvature="0" />
      <path
         style="fill:#666666;stroke:#000000;stroke-width:1px;stroke-linecap:butt;stroke-linejoin:miter;stroke-opacity:1"
         d="m -368,274 c -8.23682,2.49365 -14.09117,9.17578 -20.01367,15.02193 -5.42629,2.86434 -8.54444,9.54999 -7.12974,15.53983 0.39754,8.08056 -0.23186,16.16829 0.0496,24.25074 -4.56929,1.49061 -1.95445,9.56621 2.60049,8.27052 16.91824,-2.52913 34.28972,0.32557 51.04773,-3.61209 4.96549,-0.48574 10.83186,0.25613 14.65087,-3.65882 3.98135,-5.27126 0.98079,-12.06761 2.13132,-18.01228 0.67916,-6.14247 -1.12128,-12.82855 -5.92194,-16.96072 -6.22327,-7.2778 -11.69196,-16.07683 -20.89578,-19.89074 C -356.8164,273.0046 -362.52968,274.79494 -368,274 z"
         id="path3670"
         inkscape:connector-curvature="0" />
      <path
         style="fill:#666666;stroke:#000000;stroke-width:1px;stroke-linecap:butt;stroke-linejoin:miter;stroke-opacity:1"
         d="m -365.6875,404.9375 c -6.54623,0.45088 -12.58271,3.24677 -18.875,4.84375 0.14803,14.45812 -0.26449,28.91809 0.0625,43.375 9.34522,13.42369 26.46697,20.40313 42.56804,18.67783 6.92236,0.6066 13.06775,-4.44499 16.03589,-10.35195 5.98606,-6.51093 11.26709,-14.30037 12.29156,-23.29631 1.10296,-5.38599 1.47142,-10.9183 1.13576,-16.40457 -4.26049,-9.0204 -14.28524,-13.73835 -23.81384,-14.67481 -9.69443,-1.71438 -19.56317,-2.46099 -29.40491,-2.16894 z"
         id="path3672"
         inkscape:connector-curvature="0" />
      <path
         style="fill:#666666;stroke:#000000;stroke-width:1px;stroke-linecap:butt;stroke-linejoin:miter;stroke-opacity:1"
         d="m -399.125,41.875 c -6.66223,3.150932 -11.02402,9.765129 -17.96875,12.4375 -6.58401,5.905438 -7.73881,15.400906 -13.54337,21.881192 -2.70099,15.370182 10.18772,31.375068 25.7654,32.072168 11.9172,2.36097 24.55357,3.87626 36.35962,0.13534 5.23731,-2.94386 7.15919,-9.395503 6.98433,-15.070667 1.16632,-6.634467 4.32606,-13.830417 1.00454,-20.34868 -4.32672,-8.042044 -14.81803,-9.055575 -20.07605,-16.185587 C -385.85503,50.918899 -390.60393,43.064179 -399.125,41.875 z"
         id="path3674"
         inkscape:connector-curvature="0" />
      <path
         style="fill:#666666;stroke:#000000;stroke-width:1px;stroke-linecap:butt;stroke-linejoin:miter;stroke-opacity:1"
         d="m -523.25,-6.15625 c -7.02901,-0.420671 -14.6007,0.041757 -20.61461,4.0988675 -3.1845,4.8401508 -3.26665,10.8816973 -3.04703,16.4693555 -3.3458,9.802015 1.57685,19.61969 3.39284,29.176758 0.59452,5.200121 -1.77362,11.090614 1.6678,15.690692 5.08305,4.735741 12.45459,2.12472 18.56576,3.632318 6.28223,1.376796 12.68175,2.782183 19.1466,2.240324 12.29781,1.012082 24.48261,-5.311035 31.65548,-15.183178 6.04044,-7.468249 10.1543,-16.74325 10.48652,-26.425584 -0.97955,-8.229064 -8.48813,-13.9328943 -15.98553,-16.1161825 -8.32794,-3.5235035 -15.28469,-11.2555293 -24.92642,-10.9178267 -6.75412,-0.1365448 -13.33178,-1.9622957 -20.00134,-2.6829925 l -0.22633,0.01161 -0.11374,0.00583 c 0,0 0,4.6e-6 0,4.6e-6 z"
         id="path3676"
         inkscape:connector-curvature="0" />
      <path
         style="fill:#666666;stroke:#000000;stroke-width:1px;stroke-linecap:butt;stroke-linejoin:miter;stroke-opacity:1"
         d="m -631.21875,45.65625 c -12.47614,-1.714849 -23.90048,12.26801 -19.73213,24.151713 5.08581,10.189321 5.81988,22.072423 3.85007,33.156457 0.47308,5.17933 6.26301,9.07144 11.23827,7.56183 16.75784,-1.44429 33.60664,1.00279 50.34872,-0.79454 8.75108,-5.17774 12.48925,-15.127049 17.67913,-23.33523 5.20156,-10.152675 0.22626,-24.0533 -10.20223,-28.648468 -15.97921,-9.458422 -34.94502,-11.728713 -53.18183,-12.091762 z"
         id="path3678"
         inkscape:connector-curvature="0" />
    </g>
  </g>
</svg>
